<?xml version="1.0" encoding="utf-8"?>
<svg version="1.1" id="Layer_1"
xmlns="http://www.w3.org/2000/svg"
xmlns:xlink="http://www.w3.org/1999/xlink"
width="550px" height="400px"
xml:space="preserve">
<g id="PathID_1" transform="matrix(1.59855, 0, 0, 1.59855, 266.65, 160.2)" opacity="1">
<path style="fill:#3BABEA;fill-opacity:1" d="M13.5 -11.55L20.6 -0.45Q24.15 5.9 24.15 11Q24.15 16.65 21.25 21.55Q18.4 26.3 13.5 29.4Q7.6 33.25 0 33.25Q-9.95 33.25 -17.1 26.75Q-24.1 20.2 -24.1 11Q-24.1 0.65 -17 -9.85Q-10.7 -19.05 0 -27.1Q4.85 -30.75 9.6 -33.25Q6.95 -28 8.45 -22.15Q9.6 -17.85 13.5 -11.55" />
</g>
<g id="PathID_2" transform="matrix(1.59855, 0, 0, 1.59855, 266.65, 160.2)" opacity="1">
</g>
<g id="PathID_3" transform="matrix(1.59855, 0, 0, 1.59855, 266.25, 148.7)" opacity="1">
<path style="fill:#30A8E9;fill-opacity:0.4" d="M10.2 -26.8Q11.6 -21.6 16.3 -13.95L24.9 -0.55Q29.2 7.15 29.2 13.3Q29.2 20.15 25.7 26.1Q22.25 31.85 16.3 35.6Q9.2 40.25 0 40.25Q-12.05 40.25 -20.7 32.4Q-29.2 24.45 -29.2 13.3Q-29.2 0.8 -20.6 -11.9Q-12.95 -23.05 0 -32.8Q5.85 -37.2 11.6 -40.2Q8.4 -33.85 10.2 -26.8" />
</g>
<g id="PathID_4" transform="matrix(1.59855, 0, 0, 1.59855, 266.25, 148.7)" opacity="1">
</g>
<g id="PathID_5" transform="matrix(1.59855, 0, 0, 1.59855, 270.6, 198.15)" opacity="1">
<radialGradient
id="RadialGradID_1" gradientUnits="userSpaceOnUse" gradientTransform="matrix(0.025177, -0.00617981, 0.00474548, 0.0192871, 0, 3.15)" spreadMethod ="pad" cx="0" cy="0" r="819.2" fx="0" fy="0" >
<stop  offset="0"  style="stop-color:#FFFFFF;stop-opacity:1" />
<stop  offset="1"  style="stop-color:#85D7F3;stop-opacity:1" />
</radialGradient>
<path style="fill:url(#RadialGradID_1) " d="M11.9 -5.85Q12.4 -3.75 11.45 -1.5Q10.55 0.65 8.4 2.4Q5.85 4.55 2.1 5.5Q-2.8 6.7 -6.85 5.1Q-10.95 3.45 -11.85 0Q-12.3 -1.85 -11.35 -2.85Q-10.45 -3.85 -9.85 -3Q-6.25 2.55 2.05 0.5Q5.15 -0.25 7.45 -2.2L10.35 -4.95Q11.75 -6.35 11.9 -5.85" />
</g>
<g id="PathID_6" transform="matrix(1.59855, 0, 0, 1.59855, 270.6, 198.15)" opacity="1">
</g>
<g id="PathID_7" transform="matrix(0.798909, 0, 0, 0.798909, 228.75, 249.8)" opacity="1">
<path style="fill:#FFFFFF;fill-opacity:1" d="M29.05 -11.4Q29.05 -8.6 28 -6.45Q26.95 -4.35 25.15 -3Q23.05 -1.35 20.65 -0.65Q18.25 0 14.45 0L3.8 0L3.8 -37.25L13.65 -37.25Q17.65 -37.25 19.6 -36.95Q21.6 -36.7 23.45 -35.7Q25.45 -34.65 26.35 -32.9Q27.3 -31.15 27.3 -28.8Q27.3 -26.2 25.9 -24.1Q24.5 -22.05 22.05 -20.85L22.05 -20.65Q25.4 -19.75 27.2 -17.35Q29.05 -14.95 29.05 -11.4M22.15 -28.05Q22.15 -29.4 21.7 -30.4Q21.25 -31.4 20.25 -31.95Q19.05 -32.65 17.55 -32.8Q16.1 -32.95 13.5 -32.95L8.75 -32.95L8.75 -22.1L14.35 -22.1Q16.7 -22.1 17.8 -22.3Q18.9 -22.55 20.05 -23.3Q21.2 -24 21.65 -25.15Q22.15 -26.35 22.15 -28.05M23.9 -11.2Q23.9 -13.3 23.3 -14.65Q22.7 -16 20.85 -16.95Q19.7 -17.6 18.3 -17.75Q16.9 -17.95 14.35 -17.95L8.75 -17.95L8.75 -4.3L12.75 -4.3Q16 -4.3 17.85 -4.55Q19.75 -4.85 21.2 -5.85Q22.6 -6.8 23.25 -8Q23.9 -9.25 23.9 -11.2" />
</g>
<g id="PathID_8" transform="matrix(0.798909, 0, 0, 0.798909, 228.75, 249.8)" opacity="1">
</g>
<g id="PathID_9" transform="matrix(0.798909, 0, 0, 0.798909, 253.05, 249.8)" opacity="1">
<path style="fill:#FFFFFF;fill-opacity:1" d="M18.3 0.7Q14.65 0.7 11.6 -0.5Q8.55 -1.75 6.3 -4.15Q4.1 -6.6 2.85 -10.2Q1.65 -13.85 1.65 -18.55Q1.65 -23.2 2.8 -26.65Q4 -30.15 6.3 -32.75Q8.5 -35.25 11.55 -36.55Q14.6 -37.9 18.4 -37.9Q20.25 -37.9 21.9 -37.6Q23.55 -37.35 24.95 -36.9Q26.15 -36.55 27.4 -35.95L29.9 -34.75L29.9 -28.8L29.5 -28.8L27.8 -30.2Q26.8 -31.05 25.3 -31.85Q23.9 -32.6 22.2 -33.1Q20.55 -33.6 18.35 -33.6Q15.95 -33.6 13.8 -32.6Q11.7 -31.65 10.1 -29.75Q8.55 -27.85 7.65 -24.95Q6.8 -22.1 6.8 -18.5Q6.8 -14.7 7.7 -11.95Q8.65 -9.2 10.25 -7.3Q11.8 -5.45 13.9 -4.5Q16 -3.6 18.35 -3.6Q20.5 -3.6 22.3 -4.1Q24.15 -4.6 25.55 -5.4Q26.95 -6.2 27.95 -7Q28.95 -7.8 29.5 -8.4L29.9 -8.4L29.9 -2.5L27.55 -1.35Q26.5 -0.85 24.95 -0.35Q23.3 0.15 21.9 0.4Q20.55 0.7 18.3 0.7" />
</g>
<g id="PathID_10" transform="matrix(0.798909, 0, 0, 0.798909, 253.05, 249.8)" opacity="1">
</g>
<g id="PathID_11" transform="matrix(0.798909, 0, 0, 0.798909, 279.65, 249.8)" opacity="1">
<path style="fill:#4DACD8;fill-opacity:1" d="M14.15 0.7Q10.1 0.7 7.25 -0.1Q4.45 -0.95 1.95 -2.2L1.95 -8.4L2.3 -8.4Q4.75 -6.1 7.85 -4.85Q10.95 -3.6 13.8 -3.6Q17.9 -3.6 20 -5.3Q22.15 -7 22.15 -9.8Q22.15 -12 21 -13.4Q19.9 -14.8 17.5 -15.5Q15.8 -16 14.35 -16.3L10.75 -17.2Q8.85 -17.7 7.3 -18.45Q5.8 -19.25 4.6 -20.5Q3.45 -21.7 2.8 -23.35Q2.2 -25.05 2.2 -27.2Q2.2 -31.75 5.7 -34.8Q9.25 -37.9 14.75 -37.9Q17.85 -37.9 20.65 -37.25Q23.45 -36.65 25.85 -35.5L25.85 -29.6L25.45 -29.6Q23.65 -31.2 20.85 -32.4Q18.1 -33.6 15.05 -33.6Q11.6 -33.6 9.45 -31.95Q7.35 -30.35 7.35 -27.75Q7.35 -25.35 8.6 -23.95Q9.85 -22.55 12.2 -21.9L16.05 -20.95Q18.35 -20.4 19.85 -19.95Q23.7 -18.8 25.5 -16.4Q27.3 -14.05 27.3 -10.55Q27.3 -8.4 26.4 -6.25Q25.5 -4.15 23.9 -2.65Q22.1 -1.05 19.8 -0.15Q17.55 0.7 14.15 0.7" />
</g>
<g id="PathID_12" transform="matrix(0.798909, 0, 0, 0.798909, 279.65, 249.8)" opacity="1">
</g>
</svg>
